PathFileType	4	(X/Y/Z)	C:\Users\WrightLab\Desktop\Jo\P3_4.trc
DataRate	CameraRate	NumFrames	NumMarkers	Units	OrigDataRate	OrigDataStartFrame	OrigNumFrames
100.00	100.00	       26	19	mm	100.00	1	       639
Frame#	Time	Headset_Front			Headset_Back			Headset_Left			Headset_Right			Left_Shoulder			Right_Shoulder			Sternum			C7			Left Elbow			Right Elbow			Left Wrist			Right Wrist			Left ASIS			Right ASIS			S2			Left Knee			Right Knee			Left Ankle			Right Ankle			
		X1	Y1	Z1	X2	Y2	Z2	X3	Y3	Z3	X4	Y4	Z4	X5	Y5	Z5	X6	Y6	Z6	X7	Y7	Z7	X8	Y8	Z8	X9	Y9	Z9	X10	Y10	Z10	X11	Y11	Z11	X12	Y12	Z12	X13	Y13	Z13	X14	Y14	Z14	X15	Y15	Z15	X16	Y16	Z16	X17	Y17	Z17	X18	Y18	Z18	X19	Y19	Z19	

1	0.000																									-93.71069	968.36298	-1649.29895				-137.41867	787.73047	-1554.50427	-602.56311	771.44244	-1652.63196													-480.32626	395.05750	-1664.66809							
2	0.010																									-92.54211	967.15289	-1644.79346				-137.24294	787.62622	-1553.36060	-602.49017	771.43384	-1652.28894													-480.53345	394.02847	-1661.50000							
3	0.020																									-92.40558	966.78070	-1642.53540				-136.05092	784.26868	-1555.02637	-602.24139	770.56714	-1652.33496													-481.50839	394.27216	-1653.44861							
4	0.030																									-92.36280	967.46570	-1642.56250				-136.24133	785.06421	-1549.00940	-601.53656	769.76526	-1654.95227													-481.81323	393.42136	-1650.47290							
5	0.040																									-91.53413	966.53943	-1639.77124				-135.99995	784.57593	-1544.88684	-601.44946	769.65967	-1654.52173													-483.40616	394.77744	-1642.86609							
6	0.050																									-90.92184	966.07434	-1637.85693				-135.99327	785.37384	-1539.49084	-601.35510	769.66644	-1654.08118													-484.17709	394.58878	-1639.26941							
7	0.060																									-90.93291	965.60822	-1635.95337				-134.56837	783.00360	-1541.51697	-601.43524	768.82947	-1653.01697													-486.24594	395.62537	-1633.90259							
8	0.070																									-91.38221	964.68976	-1634.21216				-134.43463	782.54486	-1538.83325	-601.31976	768.83124	-1652.47656													-488.41745	395.85684	-1629.07239							
9	0.080																									-91.14613	963.63824	-1631.25269				-134.37744	781.21411	-1538.05945	-600.94397	767.67438	-1653.91931													-489.63989	396.15952	-1626.36865							
10	0.090																									-90.91967	963.42175	-1629.40063				-133.99084	779.30695	-1538.12561	-600.86804	767.66919	-1653.56250													-492.56369	399.17877	-1615.33972							
11	0.100																									-90.49127	962.86359	-1626.73938				-134.56349	777.64752	-1535.30676	-600.83936	767.59235	-1653.41138													-494.08374	400.86823	-1611.08728							
12	0.110																									-90.12418	962.17786	-1623.07275				-134.66394	776.87775	-1534.09717	-600.77594	767.55084	-1653.10522													-496.33466	403.00488	-1602.69482							
13	0.120																									-90.63982	961.46478	-1620.41492				-134.71082	775.82007	-1534.02112	-600.76337	767.49786	-1653.03479													-498.42731	405.16251	-1597.47046							
14	0.130																									-90.94408	961.05481	-1617.47192				-135.66731	775.61816	-1530.59351	-600.73083	767.45288	-1652.87231													-501.20383	406.33466	-1593.89478							
15	0.140																									-91.10674	961.12567	-1615.24280				-136.21523	775.11877	-1528.62842	-600.70105	767.42334	-1652.72620													-504.44302	407.64825	-1588.72119							
16	0.150																									-92.06076	961.00372	-1612.35498				-135.83371	773.27771	-1530.11401	-601.16199	767.47595	-1650.46033													-507.45468	409.03537	-1584.67346							
17	0.160																									-92.69611	960.94727	-1609.56848				-136.58032	771.78894	-1527.81653	-601.13702	767.42255	-1650.33167													-510.08261	411.71353	-1576.49011							
18	0.170																									-93.45700	961.26355	-1607.09045				-138.03062	772.19635	-1522.97827	-601.17279	767.27820	-1650.46753													-512.06287	414.80637	-1571.07581							
19	0.180																									-93.96253	959.99084	-1601.85229				-138.56691	771.60596	-1521.58044	-601.96484	767.73059	-1647.32324													-514.93207	418.15485	-1562.64514							
20	0.190																									-94.47124	960.42480	-1599.55322				-139.15193	771.08966	-1520.75513	-602.74591	767.19586	-1644.52234													-518.38617	419.64423	-1560.08179							
21	0.200																									-95.21369	960.48224	-1596.32983				-140.32091	771.39313	-1517.02820	-603.38342	767.35199	-1643.06714													-522.00482	420.33069	-1559.00134							
22	0.210																									-96.47108	960.80499	-1593.08875				-140.81371	771.05792	-1516.24426	-604.35992	767.85150	-1639.32532													-524.01379	422.26093	-1555.22766							
23	0.220																									-97.01055	961.21692	-1590.10303				-142.19322	771.49451	-1511.75012	-604.46411	767.58575	-1639.75403													-526.86542	425.71442	-1546.86902							
24	0.230				-518.45190	103.42078	-1658.00513																			-98.28341	961.47333	-1586.49573				-143.21944	770.55347	-1509.21216	-605.13861	766.48798	-1637.86951													-530.31323	428.56372	-1542.68445							
25	0.240				-523.24750	103.11214	-1647.64221																			-99.05197	961.51276	-1582.76013				-145.20448	771.22827	-1503.38794	-605.43201	765.90765	-1639.11304													-533.65515	428.36679	-1543.68359							
26	0.250				-527.26581	104.36791	-1633.80701																			-99.70171	962.08862	-1579.89502				-146.62624	770.59833	-1501.20374	-605.65564	765.41571	-1640.05005													-537.00824	430.45184	-1535.93201							
